<svg xmlns="http://www.w3.org/2000/svg" viewBox="0 0 150.22 15.74"><defs><style>.a{fill:#fff;}</style></defs><path class="a" d="M171.64,31.61l-8.83-9.24-.58.25V29.7c0,.93.08,1.84-1.36,1.81s-1.16-.91-1.16-1.7c0-4.38,0-8.76,0-13.27l9.05,9.27.72-.48c.48-2.3.09-4.66.24-7,0-.82-.39-1.91,1.16-2s1.35.89,1.36,1.82v13.1Z" transform="translate(-22.01 -16.39)"/><path class="a" d="M112.08,22.63c0,1.41,0,2.82,0,4.22a5,5,0,0,1-4.81,5,5.05,5.05,0,0,1-5.12-4.5c-.2-3.22,0-6.46-.08-9.69,0-1,.45-1.25,1.36-1.28,1.1,0,1.17.57,1.17,1.4,0,2.57,0,5.14,0,7.71,0,1.77.52,3.29,2.51,3.31s2.52-1.49,2.49-3.28c0-2.48,0-5,0-7.46,0-1.06.13-1.72,1.45-1.69s1,1,1,1.75C112.11,19.64,112.08,21.13,112.08,22.63Z" transform="translate(-22.01 -16.39)"/><path class="a" d="M59.52,22.85c0,1.32,0,2.65,0,4a5,5,0,0,1-4.56,5,4.92,4.92,0,0,1-5.31-4.21c-.25-3.39-.08-6.8-.13-10.2,0-1,.61-1,1.32-1,1.05-.07,1.21.49,1.2,1.37,0,2.57,0,5.15,0,7.72,0,1.8.58,3.29,2.52,3.32s2.55-1.43,2.5-3.26C57,23,57,20.42,57,17.85c0-.81,0-1.43,1.14-1.45s1.42.42,1.38,1.46C59.47,19.52,59.52,21.18,59.52,22.85Z" transform="translate(-22.01 -16.39)"/><path class="a" d="M74.39,31.54a4,4,0,0,1-2.39-.7c-.58-.35-1.83-.6-1.1-1.72.5-.78,1.16-1.8,2.35-.7a1.88,1.88,0,0,0,.65.36c1,.35,2,.41,2.56-.72a1.78,1.78,0,0,0-.75-2.56c-.79-.46-1.59-.89-2.36-1.38A4,4,0,0,1,72,18.34,4.38,4.38,0,0,1,78,17.1c.53.36,1.55.69.8,1.67-.43.56-.88,1.21-1.82.51s-2.11-.88-2.75.38.26,2,1.27,2.54c.51.28,1,.58,1.52.85,1.94,1.07,3,2.57,2.43,4.88A5,5,0,0,1,74.39,31.54Z" transform="translate(-22.01 -16.39)"/><path class="a" d="M93.11,32.14,86.7,16.71c1.9-.74,2.83-.19,3.44,1.63.77,2.31,1.86,4.52,3,7.17,1.12-2.73,2-5,3-7.27.78-1.87.79-1.86,3.39-1.62Z" transform="translate(-22.01 -16.39)"/><path class="a" d="M126.21,25.2c0-1.33,0-2.66,0-4,0-1.11.36-2.41-1.6-2.24-1.07.09-.63-.92-.71-1.5s.24-1.06,1-1.06c1.75,0,3.49,0,5.24,0,.7,0,1.35,0,1.29,1,0,.78,0,1.65-1.11,1.54-1.74-.17-1.57.92-1.56,2,0,3,0,6,0,9,0,1-.1,1.54-1.31,1.54s-1.27-.7-1.26-1.59C126.23,28.36,126.21,26.78,126.21,25.2Z" transform="translate(-22.01 -16.39)"/><path class="a" d="M22,23.76c0-2,.06-4,0-6,0-1.13.42-1.38,1.46-1.4,1.2,0,1.06.71,1.06,1.46v7.7c0,3.33,0,3.38,3.3,3.4,1.15,0,1.94.11,1.72,1.57-.09.55-.13,1-.81.95-.24,0-.49,0-.74,0-6,.27-6,.27-6-5.73Z" transform="translate(-22.01 -16.39)"/><path class="a" d="M135.48,25.24c0-1.32,0-2.65,0-4,0-1.16.44-2.62-1.71-2.3-1.09.16-.71-.83-.78-1.41s.11-1.13.91-1.13c1.9,0,3.81,0,5.71,0,.85,0,.9.51.87,1.14s.11,1.54-.88,1.41c-1.94-.26-1.62,1-1.62,2.14,0,3,0,5.95,0,8.93,0,1-.1,1.49-1.3,1.49s-1.23-.71-1.22-1.57C135.5,28.38,135.48,26.81,135.48,25.24Z" transform="translate(-22.01 -16.39)"/><path class="a" d="M67.09,23.75c0,2.07,0,4.14,0,6.2,0,.95-.14,1.53-1.33,1.57S64.49,30.94,64.5,30q0-6,0-11.91c0-1.06.14-1.7,1.45-1.7s1.14.84,1.14,1.64C67.1,19.94,67.1,21.85,67.09,23.75Z" transform="translate(-22.01 -16.39)"/><path class="a" d="M117.06,23.75c0-2,0-4,0-6,0-.93.29-1.34,1.28-1.37s1.27.35,1.26,1.3c0,4.15,0,8.31,0,12.46,0,.88-.19,1.34-1.24,1.36-1.22,0-1.32-.58-1.3-1.54C117.09,27.91,117.06,25.83,117.06,23.75Z" transform="translate(-22.01 -16.39)"/><path class="a" d="M149.73,16.44A7.62,7.62,0,0,0,142.08,24a7.64,7.64,0,0,0,7.58,7.4,7.49,7.49,0,0,0,.07-15Zm-.19,12.44a5.19,5.19,0,0,1-4.91-5,5.09,5.09,0,0,1,4.85-5,4.88,4.88,0,0,1,5.07,4.93A4.94,4.94,0,0,1,149.54,28.88Z" transform="translate(-22.01 -16.39)"/><path class="a" d="M38.69,16.45a7.49,7.49,0,1,0,7.51,7.38A7.47,7.47,0,0,0,38.69,16.45Zm0,12.44a5.16,5.16,0,0,1-5-4.9,5.07,5.07,0,0,1,4.78-5,4.87,4.87,0,0,1,5.13,4.86A5,5,0,0,1,38.66,28.89Z" transform="translate(-22.01 -16.39)"/></svg>