<svg xmlns="http://www.w3.org/2000/svg" viewBox="0 0 149.84 16.13"><defs><style>.a{fill:#1f1711;}.b{fill:#1b130e;}.c{fill:#1a120c;}.d{fill:#1b130d;}.e{fill:#231b15;}.f{fill:#19110b;}.g{fill:#1a130d;}</style></defs><path class="a" d="M183.24,41.88c-3.41-3.52-6.33-6.55-9.62-10-.61,2.91-.22,5.26-.36,7.58,0,.84.32,1.91-1.19,2-1.71.07-1.31-1.14-1.31-2,0-4.29,0-8.58,0-13.48l9.3,9.62.67-.3c0-2.35,0-4.7,0-7.05,0-.87-.24-1.89,1.26-1.86s1.24,1,1.25,1.91C183.24,32.57,183.24,36.87,183.24,41.88Z" transform="translate(-33.4 -25.95)"/><path class="b" d="M123.24,32.65c0,1.41,0,2.82,0,4.22a5,5,0,0,1-4.86,5A5.05,5.05,0,0,1,113.3,37c-.14-3.06,0-6.14-.06-9.2,0-1.05.33-1.47,1.42-1.48s1.1.7,1.1,1.47c0,2.57,0,5.14,0,7.71,0,1.79.59,3.28,2.57,3.25s2.46-1.56,2.43-3.34c0-2.48,0-5,0-7.45,0-.9,0-1.61,1.25-1.64s1.28.66,1.26,1.56C123.22,29.5,123.24,31.07,123.24,32.65Z" transform="translate(-33.4 -25.95)"/><path class="c" d="M70.8,32.55c0,1.41,0,2.83,0,4.24a5,5,0,0,1-4.54,5A4.9,4.9,0,0,1,61,37.6c-.26-3.39-.09-6.8-.13-10.21,0-1,.59-1,1.3-1,1-.07,1.22.48,1.21,1.37,0,2.57,0,5.14,0,7.72,0,1.79.57,3.29,2.51,3.32s2.55-1.42,2.5-3.25c-.07-2.57,0-5.15,0-7.72,0-1.05.28-1.48,1.39-1.46s1.14.65,1.13,1.46C70.79,29.4,70.8,31,70.8,32.55Z" transform="translate(-33.4 -25.95)"/><path class="b" d="M87.34,26.42a4.56,4.56,0,0,1,1.32.38c.69.41,2,.6,1.4,1.84-.42.88-1.16,1.25-2.21.42a1.51,1.51,0,0,0-2.36.46c-.61,1.1,0,1.88.93,2.45.78.47,1.58.9,2.35,1.38a3.74,3.74,0,0,1,1.94,4.19,4.63,4.63,0,0,1-3.52,3.77,5.2,5.2,0,0,1-4.87-1.13c-.46-.38-.6-.79-.1-1.22S83,37.59,84,38a11.21,11.21,0,0,0,1.27.76c.91.29,1.85.34,2.39-.67a1.8,1.8,0,0,0-.61-2.6c-.76-.49-1.56-.93-2.35-1.37a3.82,3.82,0,0,1-1.88-4.87C83.41,27.34,84.94,26.41,87.34,26.42Z" transform="translate(-33.4 -25.95)"/><path class="d" d="M97.9,26.65c1.92-.65,2.84-.15,3.41,1.56.79,2.32,1.86,4.54,3,7.27,1.12-2.72,2.12-4.93,2.93-7.21.57-1.59,1.44-2.32,3.42-1.64l-6.34,15.45C102.05,36.61,100,31.7,97.9,26.65Z" transform="translate(-33.4 -25.95)"/><path class="e" d="M137.33,35.2c0-1.41,0-2.83,0-4.24,0-1.1.2-2.2-1.56-2-1.07.11-.68-.87-.76-1.45-.11-.92.41-1.12,1.2-1.11,1.66,0,3.33,0,5,0,.67,0,1.37,0,1.32,1,0,.77,0,1.68-1.07,1.58-1.68-.16-1.61.83-1.6,2,0,3,0,6,0,9,0,.91,0,1.58-1.26,1.58s-1.32-.61-1.3-1.55C137.36,38.36,137.33,36.78,137.33,35.2Z" transform="translate(-33.4 -25.95)"/><path class="f" d="M33.42,33.8c0-1.9,0-3.81,0-5.71,0-1,0-1.75,1.36-1.74s1.13.84,1.14,1.64c0,3,.09,6,0,8.94-.06,1.59.34,2.29,2,2a16.58,16.58,0,0,1,2.23,0c.91,0,.8.65.77,1.21s.25,1.24-.69,1.27h-.74c-6,.33-6,.33-6-5.65Z" transform="translate(-33.4 -25.95)"/><path class="f" d="M146.58,35.19c0-1.32,0-2.65,0-4,0-1.17.42-2.61-1.72-2.29-1.08.16-.69-.85-.77-1.42s.14-1.12.92-1.12c1.9,0,3.8,0,5.7,0,.86,0,.88.53.85,1.14s.11,1.54-.88,1.4c-2-.26-1.6,1.05-1.61,2.15,0,2.81,0,5.62,0,8.44,0,.88.47,2-1.29,2s-1.11-1.27-1.17-2.08C146.51,38,146.58,36.6,146.58,35.19Z" transform="translate(-33.4 -25.95)"/><path class="f" d="M75.79,33.86c0-2,0-4,0-5.95,0-1,.19-1.52,1.34-1.55s1.26.65,1.25,1.55c0,4,0,7.94,0,11.91,0,1.08-.19,1.66-1.48,1.66s-1.1-.9-1.1-1.66C75.78,37.84,75.79,35.85,75.79,33.86Z" transform="translate(-33.4 -25.95)"/><path class="a" d="M130.72,33.89c0,2.07,0,4.15,0,6.23,0,.88-.18,1.38-1.23,1.36s-1.32-.28-1.31-1.28c0-4.16,0-8.31,0-12.46,0-.93.28-1.33,1.27-1.38,1.26-.08,1.27.64,1.26,1.54C130.7,29.9,130.72,31.89,130.72,33.89Z" transform="translate(-33.4 -25.95)"/><path class="g" d="M160.7,26.41a7.49,7.49,0,1,0,.11,15,7.49,7.49,0,0,0-.11-15Zm-.09,12.44a5.19,5.19,0,0,1-4.9-5,5.07,5.07,0,0,1,4.83-5,4.85,4.85,0,0,1,5.06,4.92A5,5,0,0,1,160.61,38.85Z" transform="translate(-33.4 -25.95)"/><path class="c" d="M50.05,26.41a7.49,7.49,0,1,0,7.47,7.4A7.46,7.46,0,0,0,50.05,26.41Zm.06,12.44a5.19,5.19,0,0,1-5.08-5A5.1,5.1,0,0,1,50,28.91a4.88,4.88,0,0,1,5,5A4.94,4.94,0,0,1,50.11,38.85Z" transform="translate(-33.4 -25.95)"/></svg>