<svg id="Layer_1" enable-background="new 0 0 512.158 512.158" height="512" viewBox="0 0 512.158 512.158" width="512" xmlns="http://www.w3.org/2000/svg"><path d="m501.489 327.115c-5.524-18.441-21.662-64.121-43.198-105.008-27.292-51.816-52.619-77.005-77.426-77.005h-4.799c-.531-65.717-54.147-119.018-119.988-119.018-14.705 0-29.082 2.639-42.731 7.843-5.161 1.967-7.749 7.746-5.781 12.906 1.968 5.161 7.749 7.75 12.906 5.781 11.366-4.333 23.346-6.531 35.606-6.531 54.812 0 99.458 44.329 99.988 99.018h-20.012c-.53-43.66-36.192-79.018-79.975-79.018s-79.445 35.358-79.975 79.018h-20.003c.114-11.918 2.292-23.565 6.511-34.631 1.968-5.161-.621-10.939-5.781-12.906-5.162-1.97-10.939.621-12.906 5.781-5.09 13.349-7.72 27.394-7.835 41.756h-4.797c-24.807 0-50.133 25.189-77.426 77.005-21.536 40.887-37.673 86.566-43.198 105.008-15.329 51.169-14.167 86.973 3.657 112.677 17.223 24.837 49.583 38.523 98.927 41.84 44.049 2.961 93.437 4.441 142.825 4.441s98.776-1.48 142.825-4.441c49.345-3.317 81.704-17.003 98.927-41.84 17.826-25.703 18.987-61.507 3.659-112.676zm-245.41-241.031c32.755 0 59.447 26.387 59.975 59.018h-119.95c.528-32.631 27.22-59.018 59.975-59.018zm-124.786 79.018h249.572c15.713 0 37.403 24.039 59.537 65.964h-53.728c-4.805-12.117-15.641-20-28.045-20h-45.43c-.146-1.114-.332-2.217-.587-3.302-2.943-12.507-13.279-22.879-25.721-25.809-11.12-2.618-22.55.409-30.813 8.103-8.263-7.693-19.69-10.719-30.813-8.103-12.441 2.93-22.777 13.302-25.72 25.81-.255 1.084-.441 2.188-.587 3.301h-45.43c-12.385 0-23.207 7.857-28.039 20h-53.734c22.135-41.925 43.825-65.964 59.538-65.964zm109.786 110.114c4.806 2.878 9.268 4.855 12.875 5.639.7.152 1.412.228 2.125.228s1.424-.076 2.125-.228c3.607-.784 8.07-2.761 12.875-5.639v26.998c0 8.271-6.729 15-15 15s-15-6.729-15-15zm46.628-43.193c-8.833 14-24.226 25.483-31.628 28.58-7.402-3.097-22.796-14.58-31.628-28.58-3.345-5.302-7.003-13.019-5.436-19.678 1.228-5.217 5.684-9.708 10.836-10.922 1.09-.256 2.186-.382 3.269-.382 3.612 0 7.079 1.398 9.683 3.994 3.562 3.55 8.26 5.519 13.324 5.542 4.97-.023 9.668-1.992 13.23-5.542 3.385-3.374 8.229-4.725 12.951-3.611 5.153 1.213 9.609 5.705 10.836 10.922 1.566 6.658-2.092 14.376-5.437 19.677zm193.689 196.372c-13.531 19.513-40.954 30.4-83.834 33.282-87.27 5.866-195.697 5.866-282.967 0-42.88-2.882-70.303-13.769-83.834-33.282-13.888-20.027-14.193-51.279-.933-95.541 4.459-14.885 16.092-48.169 31.958-81.788h65.276c8.97 0 14.495-3.646 16.421-10.835 1.133-4.228 4.443-9.165 10.045-9.165h48.143c1.445 3.832 3.399 7.721 5.864 11.628 3.751 5.946 8.463 11.616 13.543 16.692v42.827c0 19.299 15.701 35 35 35s35-15.701 35-35v-42.827c5.08-5.076 9.792-10.747 13.543-16.692 2.465-3.907 4.419-7.797 5.864-11.628h48.143c5.602 0 8.912 4.937 10.045 9.164 1.927 7.19 7.452 10.836 16.421 10.836h65.276c15.866 33.619 27.499 66.903 31.958 81.788 13.261 44.262 12.956 75.514-.932 95.541z"/><path d="m178.294 78.302c2.719 0 5.429-1.103 7.402-3.273l.005-.005c3.715-4.086 3.411-10.408-.675-14.123s-10.413-3.411-14.128.675-3.414 10.411.673 14.126c1.916 1.741 4.323 2.6 6.723 2.6z"/></svg>